<?xml version="1.0" encoding="utf-8"?>
<!-- Generator: Adobe Illustrator 19.1.0, SVG Export Plug-In . SVG Version: 6.00 Build 0)  -->
<svg version="1.1" id="Capa_1" xmlns="http://www.w3.org/2000/svg" xmlns:xlink="http://www.w3.org/1999/xlink" x="0px" y="0px"
	 viewBox="-677 190.3 44.7 44.7" style="enable-background:new -677 190.3 44.7 44.7;" xml:space="preserve">
<style type="text/css">
	.st0{fill:#517398;}
</style>
<g>
	<g>
		<path class="st0" d="M-652,229.4c-0.3,0.5-0.8,0.8-1.4,1l-2.8,0.8c-0.2,0.1-0.4,0.1-0.7,0.1c-0.5,0-1-0.2-1.4-0.5
			c-0.6-0.4-1-1.1-1.1-1.8l-0.2-2.9c-0.1-0.6,0.1-1.2,0.4-1.7l0.1-0.1h-10c-0.8,0-1.5-0.7-1.5-1.5c0-0.8,0.7-1.5,1.5-1.5h12l2.7-3.8
			H-669c-0.8,0-1.5-0.7-1.5-1.5s0.7-1.5,1.5-1.5l16.8,0l6.3-9v-6.7c0-1.1-0.9-2-1.9-2h-4.8v3.8c0,1.8-1.5,3.2-3.3,3.2h-9.7
			c-1.8,0-3.2-1.4-3.2-3.2v-3.8h-4.9c-1.1,0-2,0.9-2,2V233c0,1.1,0.9,2,2,2h25.9c1.1,0,1.9-0.9,1.9-2v-12.2L-652,229.4z M-669,207.8
			h16.4c0.8,0,1.5,0.7,1.5,1.5c0,0.8-0.7,1.5-1.5,1.5H-669c-0.8,0-1.5-0.7-1.5-1.5C-670.4,208.5-669.8,207.8-669,207.8z"/>
		<path class="st0" d="M-665.6,201.9h9.7c0.7,0,1.3-0.6,1.3-1.3V195c0-0.7-0.6-1.3-1.3-1.3h-1.5c0-1.9-1.5-3.4-3.4-3.4
			c-1.9,0-3.4,1.5-3.4,3.4h-1.4c-0.7,0-1.3,0.6-1.3,1.3v5.6C-666.9,201.4-666.3,201.9-665.6,201.9z M-660.8,192.2
			c0.8,0,1.5,0.7,1.5,1.5h-3C-662.3,192.9-661.6,192.2-660.8,192.2z"/>
		<path class="st0" d="M-633.6,199.3c0-0.2-0.2-0.5-0.4-0.6l-2.4-1.7c-0.2-0.1-0.4-0.2-0.5-0.2c-0.3,0-0.6,0.1-0.8,0.4l-17.2,24.7
			l4,2.8l17.2-24.7C-633.6,199.8-633.6,199.5-633.6,199.3z"/>
		<path class="st0" d="M-657.6,225.9l0.2,2.9c0,0.2,0.1,0.3,0.2,0.4c0.1,0.1,0.2,0.1,0.3,0.1c0,0,0.1,0,0.1,0l2.8-0.8
			c0.1,0,0.2-0.1,0.3-0.2l1.1-1.5l-4-2.8l-1.1,1.5C-657.6,225.6-657.7,225.8-657.6,225.9z"/>
	</g>
</g>
</svg>
