<?xml version="1.0" encoding="utf-8"?>
<!-- Generator: Adobe Illustrator 19.1.0, SVG Export Plug-In . SVG Version: 6.00 Build 0)  -->
<svg version="1.1" id="Capa_1" xmlns="http://www.w3.org/2000/svg" xmlns:xlink="http://www.w3.org/1999/xlink" x="0px" y="0px"
	 viewBox="-683 197.4 31.6 31.6" style="enable-background:new -683 197.4 31.6 31.6;" xml:space="preserve">
<style type="text/css">
	.st0{fill:#517398;}
</style>
<g>
	<g>
		<path class="st0" d="M-669.6,221l-1.6-4.4l-6.9-7l0,0l-2.2-2.2l-2.6,2.6l2.2,2.2l0,0l6.9,6.9L-669.6,221z M-681.2,210.9l-0.8-0.8
			l1.6-1.6l0.8,0.8L-681.2,210.9z M-672.8,217.7l1,0.2l0-1.3l0.2,0.2l0.9,2.5l-0.6,0.6l-2.4-1l-0.3-0.3l1.4,0.1L-672.8,217.7z"/>
		<path class="st0" d="M-658.8,207.7c-4.1,0-7.5,2.3-7.5,5.1c0,1.6,1.1,3.1,2.9,4.1l-1.4,2.5l0.6-0.1c0,0,4.2-0.6,7-1.5
			c3.7-1.1,5.8-2.9,5.8-5C-651.4,210-654.7,207.7-658.8,207.7z M-658.1,215.6h-1.6v-1.5h1.6V215.6z M-656.8,212.1
			c-0.1,0.1-0.1,0.3-0.2,0.4c-0.1,0.1-0.2,0.2-0.3,0.2c-0.1,0.1-0.3,0.1-0.4,0.2c-0.1,0-0.2,0.1-0.2,0.1c-0.1,0-0.1,0.1-0.1,0.1
			c0,0.1-0.1,0.1-0.1,0.2c0,0.1,0,0.1,0,0.2h-1.4c0-0.1,0-0.2,0-0.3c0-0.1,0-0.3,0-0.4c0-0.1,0.1-0.3,0.2-0.4
			c0.1-0.1,0.2-0.2,0.3-0.3c0.1,0,0.1-0.1,0.2-0.1c0.1,0,0.2-0.1,0.2-0.1c0.1,0,0.1-0.1,0.2-0.2c0.1-0.1,0.1-0.1,0.1-0.2
			c0-0.3-0.1-0.4-0.4-0.4c-0.2,0-0.3,0.1-0.4,0.2c-0.1,0.1-0.1,0.3-0.1,0.5h-1.6c0-0.2,0.1-0.5,0.1-0.7c0.1-0.2,0.2-0.4,0.4-0.6
			c0.2-0.2,0.4-0.3,0.7-0.5c0.3-0.1,0.6-0.2,1-0.2c0.4,0,0.7,0.1,1,0.2c0.3,0.1,0.5,0.2,0.6,0.4c0.2,0.2,0.3,0.3,0.4,0.5
			c0.1,0.2,0.1,0.4,0.1,0.5C-656.7,211.8-656.7,212-656.8,212.1z"/>
		<path class="st0" d="M-675.5,207h4.2v1.3h6.1V207h4.2v0.2c0.3-0.1,0.7-0.1,1-0.2V206h-5.2v-2.2h-1.6c0.5-0.4,0.8-1,0.8-1.7
			c0-1.2-1-2.2-2.2-2.2c-1.2,0-2.2,1-2.2,2.2c0,0.7,0.3,1.3,0.8,1.7h-1.6v2.2h-5.2v4.4l1,1V207z M-668.3,200.9
			c0.6,0,1.2,0.5,1.2,1.2c0,0.6-0.5,1.2-1.2,1.2s-1.2-0.5-1.2-1.2C-669.5,201.4-669,200.9-668.3,200.9z"/>
		<path class="st0" d="M-661.1,225.5h-14.4v-7l-1-1v9.1h16.5v-7.3c-0.4,0.1-0.7,0.1-1,0.2V225.5z"/>
	</g>
</g>
</svg>
